<?xml version="1.0" encoding="utf-8"?>
<!-- Generator: Adobe Illustrator 22.1.0, SVG Export Plug-In . SVG Version: 6.00 Build 0)  -->
<svg version="1.1" id="Layer_1" xmlns="http://www.w3.org/2000/svg" xmlns:xlink="http://www.w3.org/1999/xlink" x="0px" y="0px"
	 viewBox="0 0 599.2 105.9" style="enable-background:new 0 0 599.2 105.9;" xml:space="preserve">
<style type="text/css">
	.st0{fill:#268EB2;}
	.st1{fill:none;}
	.st2{fill:#FFFFFF;}
	.st3{font-family:'ConthraxSb-Regular';}
	.st4{font-size:75px;}
</style>
<path class="st0" d="M105.7,0.4c2.2,0,3.3,1.1,3.3,3.3v14.3c0,2.2-1.1,3.3-3.3,3.3H30.5c-2.9,0-5,0.8-6.1,2.3
	c-1.2,1.5-1.8,3.6-1.8,6.1v5.1c0,5.6,2.6,8.4,7.8,8.4h56.3c8.7,0,15.2,2.2,19.6,6.7c4.4,4.5,6.6,10.8,6.6,19.1v12
	c0,7.3-2.2,13.2-6.5,17.7c-4.3,4.5-11,6.8-20.1,6.8H3.2c-2.3,0-3.5-1.1-3.5-3.3V87.8c0-2.2,1.1-3.3,3.5-3.3H82
	c2.9,0,4.9-0.8,6.1-2.3c1.2-1.5,1.8-3.5,1.8-6.1V70c0-5.6-2.6-8.4-7.8-8.4H25.9c-8.7,0-15.3-2.2-19.6-6.7
	c-4.4-4.4-6.6-10.8-6.6-19.1V24.8c0-7.3,2.1-13.2,6.4-17.7c4.3-4.5,11-6.8,20.1-6.8H105.7z"/>
<path class="st0" d="M191.1,0.4c7.9,0,11.9,3.8,11.9,11.4v13.6c0,1.8-0.1,3.3-0.4,4.6c-0.3,1.3-0.7,2.4-1.2,3.3
	c-0.6,1-1.3,1.8-2.3,2.5c-1,0.7-2.2,1.5-3.7,2.3l-79.4,41.9c-0.9,0.5-1.3,1.3-1.3,2.3v1c0,0.9,0.5,1.4,1.5,1.4h82.3
	c2.3,0,3.5,1.1,3.5,3.3v14.3c0,2.2-1.2,3.3-3.5,3.3l-97,0c-0.1,0-0.1,0-0.1,0c-2.5-0.3-17.1-0.9-26.2-1c-2.6,0,14.4-6.5,14.4-10.3
	V80.5c0-1.8,0.1-3.3,0.3-4.6c0.2-1.2,0.5-2.3,1-3.3c0.5-0.9,1.2-1.8,2.1-2.5c0.9-0.7,2.1-1.4,3.6-2.3l79.1-42
	c0.9-0.5,1.3-1.2,1.3-2.3v-1c0-0.9-0.5-1.4-1.5-1.4H94.1c-2.3,0-3.4-1.1-3.4-3.3V3.7c0-2.2,1.1-3.3,3.4-3.3H191.1z"/>
<rect x="214.2" y="19.6" class="st1" width="416.8" height="86"/>
<text transform="matrix(1 0 0 1 214.1524 75.8465)" class="st2 st3 st4">snippitz</text>
</svg>
